<svg xmlns="http://www.w3.org/2000/svg" xmlns:xlink="http://www.w3.org/1999/xlink" preserveAspectRatio="xMidYMid" width="16" height="15.656" viewBox="0 0 16 15.656">
  <defs>
    <style>
      .cls-1 {
        fill: gray;
        fill-rule: evenodd;
      }
    </style>
  </defs>
  <path d="M14.908,6.334 C14.288,6.911 13.700,7.520 13.091,8.097 C12.147,8.990 10.845,9.042 9.890,8.244 C9.858,8.213 9.816,8.202 9.795,8.192 C10.204,7.761 10.582,7.352 10.981,6.953 C11.023,6.911 11.139,6.901 11.212,6.901 C11.622,6.932 11.968,6.774 12.262,6.502 C12.734,6.050 13.207,5.599 13.669,5.126 C14.141,4.654 14.152,4.014 13.690,3.531 C13.280,3.100 12.860,2.680 12.420,2.281 C11.947,1.851 11.307,1.841 10.834,2.281 C10.341,2.733 9.869,3.205 9.396,3.678 C9.102,3.972 8.924,4.308 8.987,4.738 C8.997,4.801 8.976,4.895 8.934,4.937 C8.535,5.336 8.137,5.714 7.727,6.103 C6.908,5.315 6.761,3.982 7.507,3.174 C8.378,2.229 9.312,1.326 10.278,0.476 C11.002,-0.164 12.241,-0.164 12.976,0.476 C13.879,1.274 14.729,2.145 15.548,3.016 C15.779,3.258 15.852,3.646 15.989,3.961 C15.999,4.171 15.999,4.402 15.999,4.633 C15.842,5.336 15.422,5.851 14.908,6.334 ZM5.586,10.228 C5.281,9.913 5.281,9.420 5.617,9.084 C6.394,8.297 7.181,7.530 7.958,6.754 C8.388,6.323 8.819,5.872 9.270,5.462 C9.449,5.294 9.680,5.210 9.795,5.137 C10.204,5.179 10.456,5.284 10.582,5.567 C10.719,5.851 10.698,6.134 10.530,6.397 C10.488,6.460 10.435,6.512 10.383,6.565 C9.165,7.772 7.948,8.990 6.730,10.197 C6.383,10.533 5.901,10.543 5.586,10.228 ZM4.788,8.748 C4.347,8.675 3.990,8.864 3.685,9.147 C3.255,9.556 2.825,9.966 2.405,10.386 C1.880,10.921 1.880,11.572 2.394,12.107 C2.783,12.506 3.171,12.895 3.580,13.273 C4.126,13.787 4.798,13.777 5.334,13.262 C5.743,12.874 6.142,12.475 6.541,12.086 C6.856,11.771 7.066,11.415 7.024,10.953 C7.013,10.879 7.066,10.774 7.118,10.711 C7.475,10.302 7.843,9.903 8.189,9.514 C8.861,9.987 9.165,10.974 8.913,11.750 C8.808,12.076 8.651,12.422 8.420,12.674 C7.612,13.514 6.782,14.343 5.921,15.120 C5.113,15.834 3.822,15.855 3.014,15.141 C2.121,14.343 1.281,13.483 0.463,12.611 C0.232,12.359 0.148,11.971 0.001,11.645 C0.001,11.404 0.001,11.173 0.001,10.942 C0.148,10.197 0.599,9.661 1.135,9.168 C1.796,8.559 2.405,7.898 3.087,7.320 C4.000,6.544 5.313,6.638 6.184,7.457 C5.785,7.877 5.376,8.307 4.966,8.727 C4.935,8.759 4.851,8.759 4.788,8.748 Z" class="cls-1"/>
</svg>
